<svg width="711" height="177" viewBox="0 0 711 177" fill="none" xmlns="http://www.w3.org/2000/svg">
<rect x="711" y="177" width="711" height="177" transform="rotate(-180 711 177)" fill="#7B82DF"/>
<path d="M-1.34322e-05 88.5L23.7 82.5815C47.4 76.8844 94.8 64.7156 142.2 53.1C189.6 41.4844 237 29.3157 284.4 20.6316C331.8 11.6157 379.2 6.08444 426.6 20.6316C474 35.4001 521.4 70.8001 568.8 76.7185C616.2 82.4157 663.6 59.1845 687.3 47.1817L711 35.4001L711 177L687.3 177C663.6 177 616.2 177 568.8 177C521.4 177 474 177 426.6 177C379.2 177 331.8 177 284.4 177C237 177 189.6 177 142.2 177C94.8 177 47.4 177 23.7 177L-2.8906e-05 177L-1.34322e-05 88.5Z" fill="#05081F"/>
<path d="M-2.05995e-06 35.4L16.9356 32.4684C33.8712 29.3156 67.6438 23.7844 101.713 23.6184C135.436 23.7844 169.356 29.3156 202.931 35.4C237 41.4844 271.069 47.0156 304.644 44.25C338.564 41.4844 372.288 29.3157 406.356 41.3185C440.129 53.1 474 88.5 508.069 85.5685C541.693 82.4157 575.713 41.4844 609.288 35.4001C643.307 29.3157 676.931 59.1845 694.212 73.7316L711 88.5001L711 177L694.064 177C677.129 177 643.356 177 609.287 177C575.564 177 541.644 177 508.069 177C474 177 439.931 177 406.356 177C372.436 177 338.712 177 304.644 177C270.871 177 237 177 202.931 177C169.307 177 135.287 177 101.712 177C67.6931 177 34.0687 177 16.7875 177L-2.68181e-05 177L-2.05995e-06 35.4Z" fill="#090E36"/>
<path d="M0 49L39.5 70.35C79 91.5 158 134.5 237 137C316 139.5 395 102.5 474 97.0001C553 91.5001 632 118.5 671.5 131.65L711 145L711 177L671.5 177C632 177 553 177 474 177C395 177 316 177 237 177C158 177 79 177 39.5 177L-2.23802e-05 177L0 49Z" fill="#070B2B"/>
<g filter="url(#filter0_i)">
<path d="M198.665 98.68C199.134 98.7653 199.71 98.8507 200.393 98.936C201.075 98.9787 201.715 99 202.313 99C203.763 99 205.086 98.7867 206.281 98.36C207.518 97.9333 208.563 97.272 209.417 96.376C210.313 95.48 210.995 94.328 211.465 92.92C211.977 91.4693 212.233 89.7413 212.233 87.736C212.233 83.896 211.337 81.016 209.545 79.096C207.753 77.1333 205.363 76.152 202.377 76.152C201.779 76.152 201.161 76.1733 200.521 76.216C199.923 76.2587 199.305 76.3227 198.665 76.408V98.68ZM202.249 108.024C201.523 108.024 200.691 108.003 199.753 107.96C198.814 107.917 197.833 107.832 196.809 107.704C195.827 107.576 194.825 107.405 193.801 107.192C192.819 107.021 191.902 106.765 191.049 106.424C188.702 105.528 187.529 103.971 187.529 101.752V71.864C187.529 70.968 187.763 70.2853 188.233 69.816C188.745 69.304 189.427 68.8987 190.281 68.6C192.115 68.0027 194.057 67.6187 196.105 67.448C198.153 67.2347 199.987 67.128 201.609 67.128C204.937 67.128 207.945 67.5333 210.633 68.344C213.363 69.1547 215.689 70.4133 217.609 72.12C219.571 73.784 221.086 75.896 222.153 78.456C223.219 81.016 223.753 84.0453 223.753 87.544C223.753 90.9573 223.241 93.944 222.217 96.504C221.193 99.0213 219.721 101.155 217.801 102.904C215.923 104.611 213.662 105.891 211.017 106.744C208.371 107.597 205.449 108.024 202.249 108.024ZM252.17 108.024C249.652 108.024 247.306 107.683 245.13 107C242.996 106.275 241.119 105.208 239.498 103.8C237.919 102.392 236.66 100.621 235.722 98.488C234.826 96.3547 234.378 93.8587 234.378 91C234.378 88.184 234.826 85.7733 235.722 83.768C236.66 81.72 237.876 80.056 239.37 78.776C240.863 77.4533 242.57 76.4933 244.49 75.896C246.41 75.256 248.372 74.936 250.378 74.936C252.639 74.936 254.687 75.2773 256.522 75.96C258.399 76.6427 259.999 77.5813 261.322 78.776C262.687 79.9707 263.732 81.4 264.458 83.064C265.226 84.728 265.61 86.5413 265.61 88.504C265.61 89.9547 265.204 91.064 264.394 91.832C263.583 92.6 262.452 93.0907 261.002 93.304L245.194 95.672C245.663 97.08 246.623 98.1467 248.074 98.872C249.524 99.5547 251.188 99.896 253.066 99.896C254.815 99.896 256.458 99.6827 257.994 99.256C259.572 98.7867 260.852 98.2533 261.834 97.656C262.516 98.0827 263.092 98.68 263.562 99.448C264.031 100.216 264.266 101.027 264.266 101.88C264.266 103.8 263.37 105.229 261.578 106.168C260.212 106.893 258.676 107.384 256.97 107.64C255.263 107.896 253.663 108.024 252.17 108.024ZM250.378 82.872C249.354 82.872 248.458 83.0427 247.69 83.384C246.964 83.7253 246.367 84.1733 245.898 84.728C245.428 85.24 245.066 85.8373 244.81 86.52C244.596 87.16 244.468 87.8213 244.426 88.504L255.37 86.712C255.242 85.8587 254.772 85.0053 253.962 84.152C253.151 83.2987 251.956 82.872 250.378 82.872ZM293.695 108.024C291.177 108.024 288.831 107.683 286.655 107C284.521 106.275 282.644 105.208 281.023 103.8C279.444 102.392 278.185 100.621 277.247 98.488C276.351 96.3547 275.903 93.8587 275.903 91C275.903 88.184 276.351 85.7733 277.247 83.768C278.185 81.72 279.401 80.056 280.895 78.776C282.388 77.4533 284.095 76.4933 286.015 75.896C287.935 75.256 289.897 74.936 291.903 74.936C294.164 74.936 296.212 75.2773 298.047 75.96C299.924 76.6427 301.524 77.5813 302.847 78.776C304.212 79.9707 305.257 81.4 305.983 83.064C306.751 84.728 307.135 86.5413 307.135 88.504C307.135 89.9547 306.729 91.064 305.919 91.832C305.108 92.6 303.977 93.0907 302.527 93.304L286.719 95.672C287.188 97.08 288.148 98.1467 289.599 98.872C291.049 99.5547 292.713 99.896 294.591 99.896C296.34 99.896 297.983 99.6827 299.519 99.256C301.097 98.7867 302.377 98.2533 303.359 97.656C304.041 98.0827 304.617 98.68 305.087 99.448C305.556 100.216 305.791 101.027 305.791 101.88C305.791 103.8 304.895 105.229 303.103 106.168C301.737 106.893 300.201 107.384 298.495 107.64C296.788 107.896 295.188 108.024 293.695 108.024ZM291.903 82.872C290.879 82.872 289.983 83.0427 289.215 83.384C288.489 83.7253 287.892 84.1733 287.423 84.728C286.953 85.24 286.591 85.8373 286.335 86.52C286.121 87.16 285.993 87.8213 285.951 88.504L296.895 86.712C296.767 85.8587 296.297 85.0053 295.487 84.152C294.676 83.2987 293.481 82.872 291.903 82.872ZM333.044 74.936C335.604 74.936 337.972 75.2773 340.148 75.96C342.366 76.6 344.265 77.6027 345.844 78.968C347.422 80.3333 348.66 82.0613 349.556 84.152C350.452 86.2 350.9 88.6533 350.9 91.512C350.9 94.2427 350.516 96.632 349.748 98.68C348.98 100.728 347.892 102.456 346.484 103.864C345.076 105.229 343.369 106.253 341.364 106.936C339.401 107.619 337.204 107.96 334.772 107.96C332.937 107.96 331.23 107.683 329.652 107.128V117.752C329.225 117.88 328.542 118.008 327.604 118.136C326.665 118.307 325.705 118.392 324.724 118.392C323.785 118.392 322.932 118.328 322.164 118.2C321.438 118.072 320.82 117.816 320.308 117.432C319.796 117.048 319.412 116.515 319.156 115.832C318.9 115.192 318.772 114.339 318.772 113.272V82.552C318.772 81.4 319.006 80.4613 319.476 79.736C319.988 79.0107 320.67 78.3493 321.524 77.752C322.846 76.8987 324.489 76.216 326.452 75.704C328.414 75.192 330.612 74.936 333.044 74.936ZM333.172 99.384C337.566 99.384 339.764 96.76 339.764 91.512C339.764 88.7813 339.209 86.7547 338.1 85.432C337.033 84.1093 335.476 83.448 333.428 83.448C332.617 83.448 331.892 83.5547 331.252 83.768C330.612 83.9387 330.057 84.152 329.588 84.408V98.488C330.1 98.744 330.654 98.9573 331.252 99.128C331.849 99.2987 332.489 99.384 333.172 99.384ZM393.534 99C394.131 99.1707 394.899 99.2987 395.838 99.384C396.776 99.4267 397.672 99.448 398.526 99.448C400.232 99.448 401.64 99.1067 402.75 98.424C403.902 97.6987 404.478 96.5893 404.478 95.096C404.478 93.688 404.008 92.6853 403.07 92.088C402.131 91.4907 400.702 91.192 398.782 91.192H393.534V99ZM393.534 83.384H398.206C400.04 83.384 401.363 83.0427 402.174 82.36C403.027 81.6773 403.454 80.6747 403.454 79.352C403.454 78.2 402.963 77.2827 401.982 76.6C401.043 75.9173 399.614 75.576 397.694 75.576C397.054 75.576 396.307 75.5973 395.454 75.64C394.643 75.6827 394.003 75.7467 393.534 75.832V83.384ZM397.694 108.024C396.968 108.024 396.115 108.003 395.134 107.96C394.152 107.917 393.128 107.832 392.062 107.704C391.038 107.576 390.014 107.405 388.99 107.192C387.966 107.021 387.027 106.765 386.174 106.424C383.827 105.528 382.654 103.971 382.654 101.752V71.864C382.654 70.968 382.888 70.2853 383.358 69.816C383.87 69.304 384.552 68.8987 385.406 68.6C386.856 68.088 388.67 67.7253 390.846 67.512C393.022 67.256 395.262 67.128 397.566 67.128C403.027 67.128 407.23 68.0453 410.174 69.88C413.118 71.7147 414.59 74.552 414.59 78.392C414.59 80.312 414.035 81.976 412.926 83.384C411.816 84.7493 410.323 85.752 408.446 86.392C410.579 86.9893 412.35 88.0773 413.758 89.656C415.208 91.2347 415.934 93.2187 415.934 95.608C415.934 99.832 414.355 102.968 411.198 105.016C408.083 107.021 403.582 108.024 397.694 108.024ZM438.919 106.936C438.449 107.021 437.745 107.128 436.807 107.256C435.911 107.427 434.993 107.512 434.055 107.512C433.116 107.512 432.263 107.448 431.495 107.32C430.769 107.192 430.151 106.936 429.639 106.552C429.127 106.168 428.721 105.656 428.423 105.016C428.167 104.333 428.039 103.459 428.039 102.392V65.272C428.508 65.1867 429.191 65.08 430.087 64.952C431.025 64.7813 431.964 64.696 432.903 64.696C433.841 64.696 434.673 64.76 435.399 64.888C436.167 65.016 436.807 65.272 437.319 65.656C437.831 66.04 438.215 66.5733 438.471 67.256C438.769 67.896 438.919 68.7493 438.919 69.816V106.936ZM452.184 76.344C452.611 76.216 453.272 76.088 454.168 75.96C455.107 75.832 456.067 75.768 457.048 75.768C457.987 75.768 458.819 75.832 459.544 75.96C460.312 76.088 460.952 76.344 461.464 76.728C461.976 77.112 462.36 77.6453 462.616 78.328C462.915 78.968 463.064 79.8213 463.064 80.888V94.648C463.064 96.3973 463.491 97.656 464.344 98.424C465.198 99.1493 466.435 99.512 468.056 99.512C469.038 99.512 469.827 99.4267 470.424 99.256C471.064 99.0853 471.555 98.9147 471.896 98.744V76.344C472.323 76.216 472.984 76.088 473.88 75.96C474.819 75.832 475.779 75.768 476.76 75.768C477.699 75.768 478.531 75.832 479.256 75.96C480.024 76.088 480.664 76.344 481.176 76.728C481.688 77.112 482.072 77.6453 482.328 78.328C482.627 78.968 482.776 79.8213 482.776 80.888V100.344C482.776 102.477 481.88 104.077 480.088 105.144C478.595 106.083 476.803 106.787 474.712 107.256C472.664 107.768 470.424 108.024 467.992 108.024C465.688 108.024 463.555 107.768 461.592 107.256C459.672 106.744 458.008 105.955 456.6 104.888C455.192 103.821 454.104 102.456 453.336 100.792C452.568 99.0853 452.184 97.0373 452.184 94.648V76.344ZM512.282 108.024C509.765 108.024 507.418 107.683 505.242 107C503.109 106.275 501.232 105.208 499.61 103.8C498.032 102.392 496.773 100.621 495.834 98.488C494.938 96.3547 494.49 93.8587 494.49 91C494.49 88.184 494.938 85.7733 495.834 83.768C496.773 81.72 497.989 80.056 499.482 78.776C500.976 77.4533 502.682 76.4933 504.602 75.896C506.522 75.256 508.485 74.936 510.49 74.936C512.752 74.936 514.8 75.2773 516.634 75.96C518.512 76.6427 520.112 77.5813 521.434 78.776C522.8 79.9707 523.845 81.4 524.57 83.064C525.338 84.728 525.722 86.5413 525.722 88.504C525.722 89.9547 525.317 91.064 524.506 91.832C523.696 92.6 522.565 93.0907 521.114 93.304L505.306 95.672C505.776 97.08 506.736 98.1467 508.186 98.872C509.637 99.5547 511.301 99.896 513.178 99.896C514.928 99.896 516.57 99.6827 518.106 99.256C519.685 98.7867 520.965 98.2533 521.946 97.656C522.629 98.0827 523.205 98.68 523.674 99.448C524.144 100.216 524.378 101.027 524.378 101.88C524.378 103.8 523.482 105.229 521.69 106.168C520.325 106.893 518.789 107.384 517.082 107.64C515.376 107.896 513.776 108.024 512.282 108.024ZM510.49 82.872C509.466 82.872 508.57 83.0427 507.802 83.384C507.077 83.7253 506.48 84.1733 506.01 84.728C505.541 85.24 505.178 85.8373 504.922 86.52C504.709 87.16 504.581 87.8213 504.538 88.504L515.482 86.712C515.354 85.8587 514.885 85.0053 514.074 84.152C513.264 83.2987 512.069 82.872 510.49 82.872Z" fill="#F2F2F2"/>
</g>
<defs>
<filter id="filter0_i" x="187.529" y="64.696" width="338.194" height="57.696" filterUnits="userSpaceOnUse" color-interpolation-filters="sRGB">
<feFlood flood-opacity="0" result="BackgroundImageFix"/>
<feBlend mode="normal" in="SourceGraphic" in2="BackgroundImageFix" result="shape"/>
<feColorMatrix in="SourceAlpha" type="matrix" values="0 0 0 0 0 0 0 0 0 0 0 0 0 0 0 0 0 0 127 0" result="hardAlpha"/>
<feOffset dy="4"/>
<feGaussianBlur stdDeviation="2"/>
<feComposite in2="hardAlpha" operator="arithmetic" k2="-1" k3="1"/>
<feColorMatrix type="matrix" values="0 0 0 0 0 0 0 0 0 0 0 0 0 0 0 0 0 0 0.25 0"/>
<feBlend mode="normal" in2="shape" result="effect1_innerShadow"/>
</filter>
</defs>
</svg>
