<svg width="511" height="443" viewBox="0 0 511 443" fill="none" xmlns="http://www.w3.org/2000/svg">
<path fill-rule="evenodd" clip-rule="evenodd" d="M93.107 0H472.755C493.843 0 511.001 17.154 511.001 38.2416V347.114C511.001 368.202 493.843 385.356 472.755 385.356H456.136V404.175C456.136 425.266 438.982 442.42 417.894 442.42H337.001C332.857 442.42 329.5 439.064 329.5 434.919C329.5 430.779 332.857 427.422 337.001 427.422H417.894C430.709 427.422 441.138 416.993 441.138 404.175V385.356H93.107C72.0194 385.356 54.8654 368.202 54.8654 347.114V72.0622H38.2455C25.4269 72.0622 14.998 82.4911 14.998 95.3098V404.175C14.998 416.993 25.4269 427.422 38.2455 427.422H289.5C293.645 427.422 297.001 430.779 297.001 434.919C297.001 439.064 293.645 442.42 289.5 442.42H38.2455C17.1579 442.42 0 425.266 0 404.175V95.3098C0 74.2182 17.1579 57.0642 38.2455 57.0642H54.8654V38.2416C54.8654 17.154 72.0194 0 93.107 0ZM396.03 168.713L496.003 281.376V38.2416C496.003 25.4269 485.574 14.998 472.755 14.998H93.107C80.2923 14.998 69.8634 25.4269 69.8634 38.2416V283.029L125.212 227.703C128.14 224.775 132.889 224.775 135.82 227.707C138.748 230.635 138.744 235.384 135.817 238.315L69.8634 304.233V347.11C69.8634 359.929 80.2923 370.358 93.107 370.358H472.755C485.574 370.358 496.003 359.929 496.003 347.11V303.976L386.572 180.651L325.828 241.364L342.179 259.793C344.927 262.892 344.647 267.629 341.547 270.382C340.12 271.649 338.342 272.268 336.572 272.268C334.502 272.268 332.44 271.419 330.958 269.75L224.452 149.719L168.214 205.926C165.286 208.853 160.538 208.857 157.61 205.926C154.682 202.994 154.682 198.245 157.614 195.317L215.723 137.236C218.148 134.811 221.473 133.458 224.935 133.583C228.362 133.684 231.637 135.212 233.91 137.778L315.855 230.128L377.843 168.167C380.268 165.742 383.633 164.39 387.056 164.514C390.483 164.616 393.758 166.148 396.03 168.713ZM362.721 100.616C362.721 72.2026 385.836 49.0876 414.249 49.0876C442.662 49.0876 465.777 72.2026 465.777 100.616C465.777 129.029 442.662 152.144 414.249 152.144C385.836 152.144 362.721 129.029 362.721 100.616ZM377.723 100.616C377.723 120.756 394.105 137.142 414.249 137.142C434.389 137.142 450.775 120.756 450.775 100.616C450.775 80.4755 434.389 64.0896 414.249 64.0896C394.108 64.0896 377.723 80.4755 377.723 100.616Z" fill="#5963B6"/>
</svg>
