<svg width="442" height="442" viewBox="0 0 442 442" fill="none" xmlns="http://www.w3.org/2000/svg">
<path fill-rule="evenodd" clip-rule="evenodd" d="M229.996 247.984C229.996 252.951 225.968 256.979 221.002 256.979C216.033 256.979 212.007 252.952 212.007 247.984V8.99465C212.007 4.0281 216.035 0 221.002 0C225.968 0 229.996 4.0281 229.996 8.99465V247.984ZM214.641 305.016C216.327 306.703 218.615 307.65 221.001 307.65C223.387 307.65 225.674 306.703 227.361 305.016L341.843 190.532C345.357 187.02 345.357 181.325 341.843 177.812C338.332 174.3 332.634 174.3 329.125 177.812L221.001 285.935L112.878 177.812C109.366 174.3 103.669 174.3 100.158 177.812C96.6459 181.325 96.6459 187.02 100.158 190.532L214.641 305.016ZM433.007 397.895C428.04 397.895 424.012 401.923 424.012 406.889V424.011H17.9893V364.058H433.005C437.972 364.058 442 360.03 442 355.064C442 350.097 437.972 346.069 433.005 346.069H8.99465C4.0281 346.069 0 350.097 0 355.064V433.005C0 437.972 4.0281 442 8.99465 442H433.005C437.972 442 442 437.972 442 433.005V406.889C442.002 401.923 437.973 397.895 433.007 397.895Z" fill="#5963B6"/>
</svg>
